<mxfile host="app.diagrams.net" modified="2023-10-18T20:26:48.791Z" agent="Mozilla/5.0 (Windows NT 10.0; Win64; x64) AppleWebKit/537.36 (KHTML, like Gecko) Chrome/116.0.0.0 Safari/537.36 OPR/102.0.0.0" etag="MX0VkcH1Lwt-yNCWEAz9" version="22.0.4" type="device">
  <diagram name="Página-1" id="UBT0ybZFP4KbvRGf37T3">
    <mxGraphModel dx="913" dy="617" grid="1" gridSize="10" guides="1" tooltips="1" connect="1" arrows="1" fold="1" page="1" pageScale="1" pageWidth="827" pageHeight="1169" math="0" shadow="0">
      <root>
        <mxCell id="0" />
        <mxCell id="1" parent="0" />
        <mxCell id="ZyHKn_QvIGPf84QP8OiG-1" value="LIVRO" style="rounded=0;whiteSpace=wrap;html=1;" vertex="1" parent="1">
          <mxGeometry x="160" y="160" width="120" height="80" as="geometry" />
        </mxCell>
        <mxCell id="ZyHKn_QvIGPf84QP8OiG-2" value="CATEGORIA" style="rounded=0;whiteSpace=wrap;html=1;" vertex="1" parent="1">
          <mxGeometry x="350" y="500" width="120" height="60" as="geometry" />
        </mxCell>
        <mxCell id="ZyHKn_QvIGPf84QP8OiG-3" value="AUTOR" style="rounded=0;whiteSpace=wrap;html=1;" vertex="1" parent="1">
          <mxGeometry x="600" y="160" width="120" height="80" as="geometry" />
        </mxCell>
        <mxCell id="ZyHKn_QvIGPf84QP8OiG-4" value="ISBN" style="ellipse;whiteSpace=wrap;html=1;" vertex="1" parent="1">
          <mxGeometry x="160" y="30" width="120" height="40" as="geometry" />
        </mxCell>
        <mxCell id="ZyHKn_QvIGPf84QP8OiG-5" value="TITULO" style="ellipse;whiteSpace=wrap;html=1;" vertex="1" parent="1">
          <mxGeometry x="40" y="80" width="110" height="40" as="geometry" />
        </mxCell>
        <mxCell id="ZyHKn_QvIGPf84QP8OiG-6" value="ANO" style="ellipse;whiteSpace=wrap;html=1;" vertex="1" parent="1">
          <mxGeometry x="10" y="160" width="100" height="40" as="geometry" />
        </mxCell>
        <mxCell id="ZyHKn_QvIGPf84QP8OiG-7" value="EDITORA" style="ellipse;whiteSpace=wrap;html=1;" vertex="1" parent="1">
          <mxGeometry x="10" y="230" width="110" height="50" as="geometry" />
        </mxCell>
        <mxCell id="ZyHKn_QvIGPf84QP8OiG-8" value="TEM" style="rhombus;whiteSpace=wrap;html=1;" vertex="1" parent="1">
          <mxGeometry x="400" y="160" width="80" height="80" as="geometry" />
        </mxCell>
        <mxCell id="ZyHKn_QvIGPf84QP8OiG-9" value="" style="line;strokeWidth=2;html=1;" vertex="1" parent="1">
          <mxGeometry x="280" y="195" width="120" height="10" as="geometry" />
        </mxCell>
        <mxCell id="ZyHKn_QvIGPf84QP8OiG-12" value="" style="endArrow=none;html=1;rounded=0;entryX=0.5;entryY=1;entryDx=0;entryDy=0;" edge="1" parent="1" target="ZyHKn_QvIGPf84QP8OiG-4">
          <mxGeometry width="50" height="50" relative="1" as="geometry">
            <mxPoint x="220" y="160" as="sourcePoint" />
            <mxPoint x="270" y="110" as="targetPoint" />
          </mxGeometry>
        </mxCell>
        <mxCell id="ZyHKn_QvIGPf84QP8OiG-13" value="" style="endArrow=none;html=1;rounded=0;entryX=1;entryY=0.5;entryDx=0;entryDy=0;exitX=0.25;exitY=0;exitDx=0;exitDy=0;" edge="1" parent="1" source="ZyHKn_QvIGPf84QP8OiG-1" target="ZyHKn_QvIGPf84QP8OiG-5">
          <mxGeometry width="50" height="50" relative="1" as="geometry">
            <mxPoint x="150" y="180" as="sourcePoint" />
            <mxPoint x="150" y="90" as="targetPoint" />
            <Array as="points">
              <mxPoint x="170" y="130" />
            </Array>
          </mxGeometry>
        </mxCell>
        <mxCell id="ZyHKn_QvIGPf84QP8OiG-16" value="" style="line;strokeWidth=1;rotatable=0;dashed=0;labelPosition=right;align=left;verticalAlign=middle;spacingTop=0;spacingLeft=6;points=[];portConstraint=eastwest;" vertex="1" parent="1">
          <mxGeometry x="480" y="195" width="120" height="10" as="geometry" />
        </mxCell>
        <mxCell id="ZyHKn_QvIGPf84QP8OiG-17" value="" style="endArrow=none;html=1;rounded=0;exitX=1;exitY=0.5;exitDx=0;exitDy=0;" edge="1" parent="1" source="ZyHKn_QvIGPf84QP8OiG-6">
          <mxGeometry width="50" height="50" relative="1" as="geometry">
            <mxPoint x="200" y="170" as="sourcePoint" />
            <mxPoint x="158" y="180" as="targetPoint" />
            <Array as="points" />
          </mxGeometry>
        </mxCell>
        <mxCell id="ZyHKn_QvIGPf84QP8OiG-19" value="" style="endArrow=none;html=1;rounded=0;entryX=0;entryY=0.75;entryDx=0;entryDy=0;exitX=1;exitY=0.5;exitDx=0;exitDy=0;" edge="1" parent="1" source="ZyHKn_QvIGPf84QP8OiG-7" target="ZyHKn_QvIGPf84QP8OiG-1">
          <mxGeometry width="50" height="50" relative="1" as="geometry">
            <mxPoint x="200" y="170" as="sourcePoint" />
            <mxPoint x="160" y="110" as="targetPoint" />
            <Array as="points" />
          </mxGeometry>
        </mxCell>
        <mxCell id="ZyHKn_QvIGPf84QP8OiG-20" value="NOME" style="ellipse;whiteSpace=wrap;html=1;" vertex="1" parent="1">
          <mxGeometry x="620" y="50" width="120" height="40" as="geometry" />
        </mxCell>
        <mxCell id="ZyHKn_QvIGPf84QP8OiG-21" value="NACIONALIDADE" style="ellipse;whiteSpace=wrap;html=1;" vertex="1" parent="1">
          <mxGeometry x="707" y="100" width="120" height="40" as="geometry" />
        </mxCell>
        <mxCell id="ZyHKn_QvIGPf84QP8OiG-22" value="&lt;font style=&quot;font-size: 32px;&quot;&gt;*&lt;/font&gt;" style="text;html=1;strokeColor=none;fillColor=none;align=center;verticalAlign=middle;whiteSpace=wrap;rounded=0;" vertex="1" parent="1">
          <mxGeometry x="300" y="160" width="60" height="30" as="geometry" />
        </mxCell>
        <mxCell id="ZyHKn_QvIGPf84QP8OiG-24" value="CÓDIGO DA CATEGORIA" style="ellipse;whiteSpace=wrap;html=1;" vertex="1" parent="1">
          <mxGeometry x="220" y="570" width="120" height="70" as="geometry" />
        </mxCell>
        <mxCell id="ZyHKn_QvIGPf84QP8OiG-25" value="DESCRIÇÃO" style="ellipse;whiteSpace=wrap;html=1;" vertex="1" parent="1">
          <mxGeometry x="370" y="610" width="120" height="40" as="geometry" />
        </mxCell>
        <mxCell id="ZyHKn_QvIGPf84QP8OiG-26" value="" style="endArrow=none;html=1;rounded=0;entryX=0.25;entryY=1;entryDx=0;entryDy=0;" edge="1" parent="1" source="ZyHKn_QvIGPf84QP8OiG-24" target="ZyHKn_QvIGPf84QP8OiG-2">
          <mxGeometry width="50" height="50" relative="1" as="geometry">
            <mxPoint x="360" y="530" as="sourcePoint" />
            <mxPoint x="399" y="510" as="targetPoint" />
          </mxGeometry>
        </mxCell>
        <mxCell id="ZyHKn_QvIGPf84QP8OiG-28" value="" style="endArrow=none;html=1;rounded=0;entryX=0.5;entryY=1;entryDx=0;entryDy=0;exitX=0.5;exitY=0;exitDx=0;exitDy=0;" edge="1" parent="1" source="ZyHKn_QvIGPf84QP8OiG-25" target="ZyHKn_QvIGPf84QP8OiG-2">
          <mxGeometry width="50" height="50" relative="1" as="geometry">
            <mxPoint x="439.5" y="565" as="sourcePoint" />
            <mxPoint x="440" y="510" as="targetPoint" />
          </mxGeometry>
        </mxCell>
        <mxCell id="ZyHKn_QvIGPf84QP8OiG-29" value="TEM" style="rhombus;whiteSpace=wrap;html=1;" vertex="1" parent="1">
          <mxGeometry x="250" y="320" width="80" height="80" as="geometry" />
        </mxCell>
        <mxCell id="ZyHKn_QvIGPf84QP8OiG-30" value="" style="endArrow=none;html=1;rounded=0;entryX=0;entryY=0;entryDx=0;entryDy=0;exitX=1;exitY=1;exitDx=0;exitDy=0;" edge="1" parent="1" source="ZyHKn_QvIGPf84QP8OiG-29" target="ZyHKn_QvIGPf84QP8OiG-2">
          <mxGeometry width="50" height="50" relative="1" as="geometry">
            <mxPoint x="303.5" y="373" as="sourcePoint" />
            <mxPoint x="376.5" y="340" as="targetPoint" />
          </mxGeometry>
        </mxCell>
        <mxCell id="ZyHKn_QvIGPf84QP8OiG-31" value="" style="endArrow=none;html=1;rounded=0;entryX=0.75;entryY=1;entryDx=0;entryDy=0;exitX=0.388;exitY=0.175;exitDx=0;exitDy=0;exitPerimeter=0;" edge="1" parent="1" source="ZyHKn_QvIGPf84QP8OiG-29" target="ZyHKn_QvIGPf84QP8OiG-1">
          <mxGeometry width="50" height="50" relative="1" as="geometry">
            <mxPoint x="160" y="273" as="sourcePoint" />
            <mxPoint x="233" y="240" as="targetPoint" />
          </mxGeometry>
        </mxCell>
        <mxCell id="ZyHKn_QvIGPf84QP8OiG-32" value="&lt;font style=&quot;font-size: 18px;&quot;&gt;1&lt;/font&gt;" style="text;html=1;strokeColor=none;fillColor=none;align=center;verticalAlign=middle;whiteSpace=wrap;rounded=0;" vertex="1" parent="1">
          <mxGeometry x="330" y="460" width="60" height="30" as="geometry" />
        </mxCell>
        <mxCell id="ZyHKn_QvIGPf84QP8OiG-34" value="&lt;font style=&quot;font-size: 32px;&quot;&gt;*&lt;/font&gt;" style="text;html=1;strokeColor=none;fillColor=none;align=center;verticalAlign=middle;whiteSpace=wrap;rounded=0;" vertex="1" parent="1">
          <mxGeometry x="260" y="280" width="60" height="30" as="geometry" />
        </mxCell>
        <mxCell id="ZyHKn_QvIGPf84QP8OiG-35" value="&lt;font style=&quot;font-size: 32px;&quot;&gt;*&lt;/font&gt;" style="text;html=1;strokeColor=none;fillColor=none;align=center;verticalAlign=middle;whiteSpace=wrap;rounded=0;" vertex="1" parent="1">
          <mxGeometry x="540" y="165" width="60" height="30" as="geometry" />
        </mxCell>
      </root>
    </mxGraphModel>
  </diagram>
</mxfile>
